<svg width="96" height="96" viewBox="0 0 96 96" xmlns="http://www.w3.org/2000/svg">
  <defs>
    <linearGradient id="bg" x1="14" y1="10" x2="82" y2="86" gradientUnits="userSpaceOnUse">
      <stop offset="0" stop-color="#0f766e" />
      <stop offset="1" stop-color="#155e75" />
    </linearGradient>
  </defs>
  <rect width="96" height="96" rx="24" fill="url(#bg)" />
  <path
    d="M16 42.5L48 18L80 42.5V74C80 78.4 76.4 82 72 82H24C19.6 82 16 78.4 16 74V42.5Z"
    fill="#f8fafc"
  />
  <path
    d="M26 43.5L48 27L70 43.5V72C70 73.1 69.1 74 68 74H28C26.9 74 26 73.1 26 72V43.5Z"
    fill="#ccfbf1"
  />
  <path
    d="M57.5 53.5C57.5 48.3 53.2 44 48 44C42.8 44 38.5 48.3 38.5 53.5V56H36C33.8 56 32 57.8 32 60V72C32 74.2 33.8 76 36 76H60C62.2 76 64 74.2 64 72V60C64 57.8 62.2 56 60 56H57.5V53.5ZM44.5 53.5C44.5 51.4 45.9 50 48 50C50.1 50 51.5 51.4 51.5 53.5V56H44.5V53.5Z"
    fill="#0f172a"
  />
  <circle cx="48" cy="65" r="3.5" fill="#f8fafc" />
  <rect x="46.75" y="65" width="2.5" height="6.5" rx="1.25" fill="#f8fafc" />
</svg>
